<?xml version="1.0" standalone="no"?>
<!DOCTYPE svg PUBLIC "-//W3C//DTD SVG 20010904//EN"
 "http://www.w3.org/TR/2001/REC-SVG-20010904/DTD/svg10.dtd">
<svg version="1.0" xmlns="http://www.w3.org/2000/svg"
 width="500.000000pt" height="500.000000pt" viewBox="0 0 500.000000 500.000000"
 preserveAspectRatio="xMidYMid meet">
<metadata>
Created by potrace 1.14, written by Peter Selinger 2001-2017
</metadata>
<g transform="translate(0.000000,500.000000) scale(0.100000,-0.100000)"
fill="#000000" stroke="none">
<path d="M2410 4737 c-3 -3 -37 -8 -76 -11 -39 -4 -80 -8 -90 -10 -11 -2 -41
-7 -69 -10 -27 -4 -77 -14 -110 -23 -33 -8 -70 -17 -83 -19 -12 -3 -64 -18
-115 -35 -463 -154 -852 -440 -1137 -834 -217 -301 -351 -642 -404 -1030 -17
-126 -18 -443 -1 -555 7 -47 16 -105 20 -130 21 -147 102 -398 181 -565 281
-596 832 -1051 1469 -1215 127 -33 150 -37 270 -54 107 -15 161 -18 295 -18
80 0 170 3 200 6 122 13 157 18 205 28 28 5 61 11 75 14 298 56 671 234 935
444 115 92 288 269 378 387 260 342 406 706 457 1139 10 87 7 446 -4 512 -3
18 -8 52 -11 75 -3 23 -8 49 -10 57 -2 8 -7 31 -10 50 -17 99 -67 265 -122
400 -243 595 -755 1077 -1358 1277 -139 47 -265 80 -335 88 -40 5 -127 18
-145 22 -27 6 -400 15 -405 10z m395 -50 c11 -3 43 -8 70 -11 215 -27 544
-133 713 -230 35 -20 66 -36 68 -36 9 0 139 -84 207 -132 469 -341 799 -872
886 -1428 6 -36 13 -83 17 -105 13 -83 12 -420 -1 -525 -53 -415 -213 -796
-470 -1120 -341 -429 -867 -733 -1395 -806 -25 -3 -54 -9 -65 -11 -52 -14
-454 -11 -555 3 -400 55 -772 212 -1082 454 -108 84 -288 264 -366 365 -35 44
-67 86 -72 92 -27 33 -132 208 -168 280 -47 93 -129 290 -142 343 -5 19 -18
69 -29 110 -22 80 -45 205 -58 310 -16 127 -9 443 12 580 4 25 34 177 39 195
124 460 338 814 682 1125 165 149 411 303 629 393 130 53 354 117 464 133 20
2 45 6 56 9 11 2 56 7 100 11 44 4 81 8 83 9 5 5 355 -3 377 -8z"/>
<path d="M2673 3781 c-177 -60 -408 -312 -778 -847 -33 -48 -64 -92 -70 -98
-5 -6 -29 -40 -53 -74 -31 -46 -41 -68 -36 -84 3 -11 44 -83 90 -160 46 -76
84 -141 84 -144 0 -3 8 -17 19 -32 10 -15 67 -101 126 -192 92 -141 194 -286
230 -326 6 -6 28 -33 50 -60 64 -79 165 -171 220 -201 82 -45 213 -38 350 18
17 7 35 13 40 14 6 2 32 12 57 24 26 11 52 21 57 21 14 0 14 6 -1 48 -11 29
-16 33 -38 29 -135 -27 -168 -29 -223 -13 -86 25 -161 87 -304 251 -101 117
-363 489 -363 516 0 13 -38 26 -84 27 -21 1 -41 4 -44 7 -3 3 -7 46 -8 97 -3
81 -6 96 -33 139 l-29 48 34 48 c19 26 34 57 34 69 0 49 33 115 77 154 25 22
54 40 64 40 10 0 35 21 56 47 70 87 78 96 158 181 133 140 256 222 335 222 53
0 106 -18 140 -47 l31 -26 24 23 c86 81 84 223 -4 274 -46 27 -141 30 -208 7z"/>
<path d="M1447 3784 c-1 -2 -18 -6 -37 -9 -71 -12 -234 -47 -255 -55 -18 -7
-22 -15 -19 -40 5 -38 12 -52 25 -45 5 3 52 8 104 10 74 4 102 1 129 -11 61
-30 61 -31 60 -423 0 -331 -10 -824 -19 -1021 -18 -399 -22 -645 -10 -643 6 0
37 4 70 7 33 3 83 8 111 12 l51 6 2 82 c1 44 4 126 6 181 2 55 7 192 10 305 3
113 7 270 10 350 9 273 15 455 21 695 3 132 7 275 8 318 3 97 -10 194 -29 224
-26 39 -73 57 -158 58 -42 1 -78 0 -80 -1z"/>
<path d="M4118 3290 c-20 -18 -24 -40 -8 -40 19 0 25 5 25 20 0 8 9 16 20 18
15 2 21 -3 22 -20 2 -25 -15 -51 -28 -42 -5 3 -9 0 -9 -5 0 -6 0 -13 0 -16 0
-3 1 -4 3 -3 1 1 11 -4 23 -10 19 -10 21 -17 15 -64 -1 -4 -10 -9 -21 -13 -20
-6 -73 22 -65 35 3 4 -2 13 -10 20 -23 19 -63 3 -88 -35 -21 -33 -36 -44 -38
-27 -6 57 -26 77 -73 68 -41 -8 -58 -26 -24 -26 33 0 41 -9 60 -61 15 -43 15
-49 0 -70 -21 -32 -42 -44 -72 -44 -20 0 -25 -5 -25 -25 0 -20 6 -26 28 -28
30 -4 45 8 76 59 14 22 21 28 21 17 0 -10 5 -18 10 -18 6 0 10 -8 10 -19 0
-25 50 -45 94 -37 43 8 40 35 -2 28 -32 -4 -42 6 -64 63 -14 35 -14 44 -2 67
23 44 49 53 88 29 43 -27 74 -26 109 2 38 31 42 62 11 86 l-25 20 20 20 c46
46 -35 96 -81 51z"/>
<path d="M3659 3096 c-19 -19 -680 -27 -1269 -15 -193 4 -208 3 -251 -17 -48
-23 -77 -56 -99 -114 -8 -23 -15 -104 -18 -230 l-4 -195 51 -3 51 -3 1 53 c1
159 25 245 84 304 62 62 96 69 325 69 l195 0 -1 -340 c-1 -187 -3 -450 -5
-585 l-4 -245 48 -26 c49 -26 148 -38 174 -21 8 5 13 71 17 207 3 110 8 288
12 395 8 286 12 435 13 523 l1 77 83 -6 c45 -3 92 -7 105 -9 50 -8 252 -19
344 -18 113 1 178 25 203 74 29 54 12 129 -28 129 -13 0 -26 -2 -28 -4z"/>
<path d="M2883 1540 c-29 -9 -53 -15 -53 -13 0 2 -9 -1 -19 -7 -11 -5 -38 -12
-61 -14 -23 -2 -43 -6 -45 -7 -3 -4 -6 -76 -21 -444 -3 -82 -7 -160 -9 -172
-2 -13 1 -25 6 -28 5 -4 51 -1 103 5 52 6 103 12 115 13 11 1 21 6 22 12 2 20
6 143 13 385 4 135 9 252 12 262 7 25 -6 27 -63 8z"/>
</g>
</svg>
